<svg width="64" height="64" viewBox="0 0 64 64" fill="none" xmlns="http://www.w3.org/2000/svg">
<g clip-path="url(#clip0_1_835)">
<rect width="64" height="64" fill="#FF7A00"/>
<path d="M44.5063 11.3281H19.522C19.0954 11.3281 18.7485 11.675 18.7485 12.1016V17.0703C18.7485 17.4969 19.0954 17.8438 19.522 17.8438H22.4985V49.2734C22.4985 51.2797 24.1251 52.9062 26.1313 52.9062H38.4595C40.4657 52.9062 42.0923 51.2797 42.0923 49.2734V17.8438H44.5063C44.9329 17.8438 45.2798 17.4969 45.2798 17.0703V12.1016C45.2798 11.675 44.9329 11.3281 44.5063 11.3281ZM39.6501 49.2734C39.6501 49.9297 39.1157 50.4688 38.4548 50.4688H26.1267C25.4704 50.4688 24.9313 49.9344 24.9313 49.2734V18.3125H39.6454V49.2734H39.6501ZM42.9313 15.4953H21.0923V13.6719H42.9313V15.4953Z" fill="white"/>
<path d="M29.4077 34.6204C30.8187 34.6204 31.9624 33.4766 31.9624 32.0657C31.9624 30.6547 30.8187 29.511 29.4077 29.511C27.9968 29.511 26.853 30.6547 26.853 32.0657C26.853 33.4766 27.9968 34.6204 29.4077 34.6204ZM29.4077 31.011C29.989 31.011 30.4624 31.4844 30.4624 32.0657C30.4624 32.6469 29.989 33.1204 29.4077 33.1204C28.8265 33.1204 28.353 32.6469 28.353 32.0657C28.353 31.4844 28.8265 31.011 29.4077 31.011ZM35.7827 37.5266C34.3718 37.5266 33.228 38.6704 33.228 40.0813C33.228 41.4922 34.3718 42.636 35.7827 42.636C37.1937 42.636 38.3374 41.4922 38.3374 40.0813C38.3374 38.6704 37.1937 37.5266 35.7827 37.5266ZM35.7827 41.136C35.2015 41.136 34.728 40.6626 34.728 40.0813C34.728 39.5001 35.2015 39.0266 35.7827 39.0266C36.364 39.0266 36.8374 39.5001 36.8374 40.0813C36.8374 40.6626 36.364 41.136 35.7827 41.136ZM35.4546 28.7141C36.8655 28.7141 38.0093 27.5704 38.0093 26.1594C38.0093 24.7485 36.8655 23.6047 35.4546 23.6047C34.0437 23.6047 32.8999 24.7485 32.8999 26.1594C32.8999 27.575 34.0437 28.7141 35.4546 28.7141ZM35.4546 25.1094C36.0358 25.1094 36.5093 25.5829 36.5093 26.1641C36.5093 26.7454 36.0358 27.2188 35.4546 27.2188C34.8733 27.2188 34.3999 26.7454 34.3999 26.1641C34.3999 25.5829 34.8733 25.1094 35.4546 25.1094Z" fill="white"/>
</g>
<defs>
<clipPath id="clip0_1_835">
<rect width="64" height="64" rx="10" fill="white"/>
</clipPath>
</defs>
</svg>
