<svg width="64" height="64" viewBox="0 0 64 64" fill="none" xmlns="http://www.w3.org/2000/svg">
<g clip-path="url(#clip0_1_806)">
<path d="M0 32C0 40.4869 3.37142 48.6263 9.37258 54.6274C15.3737 60.6286 23.5131 64 32 64C40.4869 64 48.6263 60.6286 54.6274 54.6274C60.6286 48.6263 64 40.4869 64 32C64 23.5131 60.6286 15.3737 54.6274 9.37258C48.6263 3.37142 40.4869 0 32 0C23.5131 0 15.3737 3.37142 9.37258 9.37258C3.37142 15.3737 0 23.5131 0 32H0Z" fill="#FF4F5B"/>
<path d="M31.9691 38.1696C33.0424 38.1754 34.1063 37.969 35.0996 37.5624C36.0929 37.1558 36.9961 36.5569 37.7573 35.8002C38.5185 35.0435 39.1227 34.1439 39.5353 33.1531C39.9478 32.1622 40.1605 31.0996 40.1611 30.0263C40.1611 25.5232 36.9534 20.8973 31.9691 13.4938C26.972 20.8973 23.7771 25.5258 23.7771 30.0263C23.7778 31.0996 23.9905 32.1622 24.403 33.1531C24.8155 34.1439 25.4197 35.0435 26.1809 35.8002C26.9421 36.5569 27.8453 37.1558 28.8387 37.5624C29.832 37.969 30.8958 38.1754 31.9691 38.1696ZM31.9077 18.7392C32.5656 19.7506 32.929 20.925 32.9573 22.1312C32.9573 26.1402 28.8254 26.8186 28.8254 24.3507C28.8843 22.7482 30.9195 20.224 31.9077 18.7367V18.7392ZM31.9691 44.3392C28.3288 44.3392 23.1474 43.4151 20.741 40.6989C21.7375 40.134 22.7924 39.6791 23.8872 39.3421C25.244 40.2663 28.019 41.2544 31.9691 41.2544C35.9192 41.2544 38.6942 40.2663 40.1125 39.3421C41.2092 39.6804 42.2659 40.137 43.2638 40.704C40.796 43.4176 35.6146 44.3443 31.9742 44.3443L31.9691 44.3392ZM50.4754 41.2672C50.4754 46.3872 42.2091 50.5191 31.9691 50.5191C21.7291 50.5191 13.4629 46.3872 13.4629 41.2672V41.0829C13.4905 40.3127 13.7222 39.5637 14.1342 38.9124C14.5462 38.2611 15.1238 37.7309 15.8078 37.376C16.4862 37.0158 17.2464 36.8378 18.0141 36.8593C18.7819 36.8809 19.5309 37.1012 20.188 37.4989H20.2494C17.843 38.6714 16.5477 40.0896 16.5477 41.2621C16.5477 43.7914 22.5304 47.4317 31.9691 47.4317C41.4078 47.4317 47.3906 43.7914 47.3906 41.2621C47.3906 40.0896 46.0952 38.6714 43.7502 37.4989H43.8117C44.4801 37.0956 45.2437 36.8774 46.0242 36.8666C46.8047 36.8558 47.574 37.0529 48.2533 37.4375C48.9228 37.8184 49.484 38.364 49.8837 39.0226C50.2833 39.6811 50.5081 40.4309 50.5368 41.2007C50.5205 41.2007 50.5049 41.2071 50.4934 41.2187C50.4818 41.2302 50.4754 41.2458 50.4754 41.2621V41.2672ZM42.7518 35.0234C44.9714 32.8653 47.5006 34.7162 49.5384 32.7399C50.1177 32.1696 50.4496 31.3945 50.4626 30.5818C50.4626 28.608 48.179 27.0669 45.7752 28.3623C43.9371 29.4093 42.8261 32.0615 42.7518 35.0234ZM43.0078 27.2512C43.996 25.6461 45.7214 26.3885 46.5918 24.9063C47.6414 23.1783 45.4808 21.3914 43.7554 22.9325C42.8261 23.808 42.6418 25.4618 43.0078 27.2512ZM18.1502 28.416C15.7439 27.1207 13.4629 28.672 13.4629 30.6355C13.4759 31.4483 13.8078 32.2234 14.3871 32.7936C16.4351 34.7674 18.9515 32.9165 21.1736 35.0771C21.1122 32.0615 20.0011 29.4093 18.1502 28.416ZM20.124 22.9248C18.4575 21.3197 16.2379 23.1091 17.2875 24.8986C18.2117 26.3783 19.8782 25.6384 20.8715 27.2435C21.2965 25.4618 21.1122 23.808 20.124 22.9325V22.9248Z" fill="white"/>
</g>
<defs>
<clipPath id="clip0_1_806">
<rect width="64" height="64" fill="white"/>
</clipPath>
</defs>
</svg>
