<svg width="100" height="100" viewBox="0 0 100 100" fill="none" xmlns="http://www.w3.org/2000/svg">
<circle cx="50" cy="50" r="50" fill="#FF5656"/>
<path d="M68.6666 37.9999C68.6666 27.7333 60.2666 19.3333 49.9999 19.3333C39.7333 19.3333 31.3333 27.7333 31.3333 37.9999C31.3333 48.1333 45.1999 64.5333 49.0666 68.9333C49.5999 69.4666 50.5333 69.5999 51.0666 68.9333C54.7999 64.5333 68.6666 48.3999 68.6666 37.9999ZM40.6666 37.9999C40.6666 32.7999 44.7999 28.6666 49.9999 28.6666C55.1999 28.6666 59.3333 32.7999 59.3333 37.9999C59.3333 43.1999 55.1999 47.3333 49.9999 47.3333C44.7999 47.3333 40.6666 43.1999 40.6666 37.9999Z" fill="white"/>
<path d="M62.2667 63.3334C61.6 64.1334 62.1333 65.3334 63.0667 65.4667C66.2667 65.8667 69.2 66.5334 71.7333 67.2001C77.8667 68.9334 79.2 70.9334 79.2 71.2001C79.2 71.6001 77.8667 73.4667 71.7333 75.2001C65.8667 76.9334 58.1333 77.8667 49.8667 77.8667C41.6 77.8667 33.7333 76.9334 28 75.2001C22 73.6001 20.6667 71.7334 20.6667 71.3334C20.6667 70.9334 22 69.0667 28.1333 67.3334C30.6667 66.5334 33.6 66.0001 36.9333 65.6001C38 65.4667 38.4 64.2667 37.8667 63.4667C37.6 63.0667 37.2 62.9334 36.6667 62.9334C25.6 64.4001 18 67.6001 18 71.3334C18 76.5334 32.2667 80.6667 50 80.6667C67.7333 80.6667 82 76.5334 82 71.3334C82 67.6001 74.4 64.4001 63.4667 62.9334C63.0667 62.8001 62.5333 63.0667 62.2667 63.3334Z" fill="white"/>
</svg>
