<svg width="64" height="64" viewBox="0 0 64 64" fill="none" xmlns="http://www.w3.org/2000/svg">
<g clip-path="url(#clip0_1_794)">
<rect width="64" height="64" fill="#FF4F5B"/>
<path d="M31.9999 48.3635C22.9453 48.3635 15.6362 41.0544 15.6362 31.9999C15.6362 22.9453 22.9453 15.6362 31.9999 15.6362C41.0544 15.6362 48.3635 22.9453 48.3635 31.9999C48.3635 41.0544 41.0544 48.3635 31.9999 48.3635ZM31.9999 17.818C24.1453 17.818 17.818 24.1453 17.818 31.9999C17.818 39.8544 24.1453 46.1817 31.9999 46.1817C39.8544 46.1817 46.1817 39.8544 46.1817 31.9999C46.1817 24.1453 39.8544 17.818 31.9999 17.818Z" fill="white"/>
<path d="M26 32.0002C26 33.4468 26.5747 34.8342 27.5976 35.8571C28.6205 36.8801 30.0079 37.4547 31.4545 37.4547C32.9012 37.4547 34.2886 36.8801 35.3115 35.8571C36.3344 34.8342 36.9091 33.4468 36.9091 32.0002C36.9091 30.5536 36.3344 29.1662 35.3115 28.1433C34.2886 27.1203 32.9012 26.5457 31.4545 26.5457C30.0079 26.5457 28.6205 27.1203 27.5976 28.1433C26.5747 29.1662 26 30.5536 26 32.0002Z" fill="white"/>
<path d="M47.818 30.9092H53.2726V33.091H47.818V30.9092ZM9.63623 30.9092H15.0908V33.091H9.63623V30.9092ZM30.3635 48.3637H32.5453V53.8182H30.3635V48.3637ZM30.3635 10.1819H32.5453V15.6364H30.3635V10.1819Z" fill="white"/>
</g>
<defs>
<clipPath id="clip0_1_794">
<rect width="64" height="64" rx="10" fill="white"/>
</clipPath>
</defs>
</svg>
