<svg width="64" height="64" viewBox="0 0 64 64" fill="none" xmlns="http://www.w3.org/2000/svg">
<g clip-path="url(#clip0_1_844)">
<rect width="64" height="64" fill="#FF4F5B"/>
<path d="M21.3724 27.5989C21.9529 26.1994 22.7929 24.9439 23.8684 23.8684C25.4748 22.2574 27.5243 21.1609 29.7559 20.7184L29.1709 17.7754C26.3568 18.3325 23.7724 19.7153 21.7474 21.7474C19.7153 23.7724 18.3325 26.3568 17.7754 29.1709L20.7184 29.7559C20.8654 29.0164 21.0844 28.2904 21.3724 27.5989ZM23.8684 40.1314C22.2581 38.525 21.1617 36.4763 20.7184 34.2454L17.7754 34.8289C18.3333 37.6424 19.7154 40.2265 21.7459 42.2524C23.772 44.2848 26.3573 45.668 29.1724 46.2259L29.7544 43.2814C27.522 42.8422 25.4722 41.7451 23.8684 40.1314ZM42.2524 21.7474C40.2271 19.7158 37.6428 18.3331 34.8289 17.7754L34.2454 20.7184C36.4765 21.162 38.5253 22.259 40.1314 23.8699C41.7416 25.4757 42.838 27.524 43.2814 29.7544L46.2259 29.1724C46.0406 28.2404 45.7638 27.329 45.3994 26.4514C44.6714 24.6909 43.6018 23.0922 42.2524 21.7474ZM42.6274 36.4024C42.051 37.799 41.2019 39.0667 40.1299 40.1314C38.5272 41.7449 36.4783 42.842 34.2469 43.2814L34.8274 46.2259C35.7599 46.0406 36.6718 45.7638 37.5499 45.3994C39.31 44.6723 40.9084 43.6031 42.2524 42.2539C44.286 40.2286 45.6694 37.643 46.2259 34.8274L43.2814 34.2469C43.1342 34.985 42.9152 35.7069 42.6274 36.4024ZM39.9994 31.9999C39.9966 29.8791 39.1529 27.8461 37.6533 26.3465C36.1537 24.8469 34.1206 24.0032 31.9999 24.0004C29.8791 24.0032 27.8461 24.8469 26.3465 26.3465C24.8469 27.8461 24.0032 29.8791 24.0004 31.9999C24.0032 34.1206 24.8469 36.1537 26.3465 37.6533C27.8461 39.1529 29.8791 39.9966 31.9999 39.9994C34.1206 39.9966 36.1537 39.1529 37.6533 37.6533C39.1529 36.1537 39.9966 34.1206 39.9994 31.9999ZM31.9999 36.9994C29.2429 36.9994 27.0004 34.7569 27.0004 31.9999C27.0004 29.2429 29.2444 27.0004 31.9999 27.0004C34.7554 27.0004 36.9994 29.2444 36.9994 31.9999C36.9994 34.7554 34.7569 36.9994 31.9999 36.9994Z" fill="white"/>
<path d="M52.9865 32.2595C52.988 32.1725 53 32.0885 53 32C53 20.42 43.58 11 32 11C20.42 11 11 20.42 11 32C11 32.0885 11.012 32.1725 11.0135 32.2595C11.012 32.282 11 32.3015 11 32.3255C11 32.3645 11.0195 32.396 11.0225 32.435C11.2565 43.8125 20.567 53 32 53C43.433 53 52.7435 43.8125 52.9775 32.435C52.9805 32.396 53 32.3645 53 32.3255C53 32.3015 52.988 32.282 52.9865 32.2595ZM33.8255 49.907V48.899C33.8255 48.5012 33.6675 48.1196 33.3862 47.8383C33.1049 47.557 32.7233 47.399 32.3255 47.399C31.9277 47.399 31.5461 47.557 31.2648 47.8383C30.9835 48.1196 30.8255 48.5012 30.8255 48.899V49.94C22.055 49.37 14.9705 42.5105 14.093 33.8255H15.101C15.4988 33.8255 15.8804 33.6675 16.1617 33.3862C16.443 33.1049 16.601 32.7233 16.601 32.3255C16.601 31.9277 16.443 31.5461 16.1617 31.2648C15.8804 30.9835 15.4988 30.8255 15.101 30.8255H14.06C14.6435 21.839 21.839 14.6435 30.8255 14.06V15.101C30.8255 15.4988 30.9835 15.8804 31.2648 16.1617C31.5461 16.443 31.9277 16.601 32.3255 16.601C32.7233 16.601 33.1049 16.443 33.3862 16.1617C33.6675 15.8804 33.8255 15.4988 33.8255 15.101V14.093C42.5105 14.9705 49.37 22.055 49.94 30.8255H48.899C48.5012 30.8255 48.1196 30.9835 47.8383 31.2648C47.557 31.5461 47.399 31.9277 47.399 32.3255C47.399 32.7233 47.557 33.1049 47.8383 33.3862C48.1196 33.6675 48.5012 33.8255 48.899 33.8255H49.907C49.0505 42.296 42.296 49.0505 33.8255 49.907Z" fill="white"/>
</g>
<defs>
<clipPath id="clip0_1_844">
<rect width="64" height="64" rx="10" fill="white"/>
</clipPath>
</defs>
</svg>
