<svg width="100" height="100" viewBox="0 0 100 100" fill="none" xmlns="http://www.w3.org/2000/svg">
<circle cx="50" cy="50" r="50" fill="#2070DD"/>
<path d="M76.0178 35.3482L71.2629 26.1984C70.0878 23.9433 67.1771 22.1772 64.6366 22.1772H35.4009C32.8639 22.1772 29.943 23.9331 28.7576 26.1713L24.0062 35.1343C22.9805 37.0736 22.179 40.3069 22.179 42.4975V72.6062C22.179 75.4829 24.5157 77.8229 27.3957 77.8229H72.6044C75.4811 77.8229 77.8212 75.4828 77.8212 72.6062V42.7115C77.8213 40.5242 77.0299 37.2875 76.0178 35.3482ZM27.0833 36.7611L31.8314 27.8015C32.4257 26.6808 34.1273 25.655 35.4009 25.655H64.6366C65.9035 25.655 67.5915 26.6807 68.179 27.8049L72.934 36.9512C73.1582 37.3859 73.3687 37.943 73.5623 38.5407H26.387C26.5976 37.8717 26.8286 37.2399 27.0833 36.7611ZM74.3434 72.6061C74.3434 73.5638 73.5657 74.3449 72.6045 74.3449H27.3957C26.4346 74.3449 25.6568 73.5638 25.6568 72.6061V42.4975C25.6568 42.3582 25.684 42.1748 25.6976 42.0186H74.2856C74.306 42.2496 74.3433 42.5077 74.3433 42.7115V72.6061H74.3434Z" fill="white"/>
<path d="M64.6198 51.5964L55.8606 60.9534L52.3251 57.4246C51.6458 56.7453 50.5454 56.7453 49.866 57.4246C49.1868 58.1038 49.1868 59.2042 49.866 59.8834L54.6346 64.6384C54.9743 64.978 55.4158 65.1478 55.8606 65.1478C56.1018 65.1478 56.3395 65.0867 56.5672 64.9848C56.8218 64.8965 57.0596 64.7606 57.2566 64.5534L67.1603 53.9739C67.8158 53.2742 67.7784 52.1738 67.0788 51.5149C66.3791 50.8628 65.2787 50.8968 64.6198 51.5964Z" fill="white"/>
<path d="M44.8152 54.1367H34.3783C33.4204 54.1367 32.6393 54.9145 32.6393 55.8756C32.6393 56.8368 33.4205 57.6146 34.3783 57.6146H44.8152C45.7764 57.6146 46.5541 56.8368 46.5541 55.8756C46.5541 54.9145 45.7764 54.1367 44.8152 54.1367Z" fill="white"/>
<path d="M39.5375 61.5542H34.3208C33.3596 61.5542 32.5819 62.3354 32.5819 63.2931C32.5819 64.2576 33.3596 65.032 34.3208 65.032H39.5375C40.4987 65.032 41.2764 64.2576 41.2764 63.2931C41.2764 62.3354 40.4987 61.5542 39.5375 61.5542Z" fill="white"/>
</svg>
