<svg width="100" height="100" viewBox="0 0 100 100" fill="none" xmlns="http://www.w3.org/2000/svg">
<circle cx="50" cy="50" r="50" fill="#2070DD"/>
<path d="M35.7437 54.9874C32.2687 54.9874 29.4562 57.7999 29.4562 61.2749C29.4562 64.7499 32.2687 67.5624 35.7437 67.5624C39.2187 67.5624 42.0375 64.7499 42.0375 61.2812C42.0437 57.8062 39.2187 54.9874 35.7437 54.9874ZM35.7437 65.5749C33.375 65.5749 31.45 63.6499 31.45 61.2812C31.45 58.9124 33.375 56.9874 35.7437 56.9874C38.1125 56.9874 40.0375 58.9124 40.0375 61.2812C40.0375 63.6499 38.1125 65.5749 35.7437 65.5749ZM67.0687 54.9874C63.5937 54.9874 60.7812 57.7999 60.7812 61.2749C60.7812 64.7499 63.5937 67.5624 67.0687 67.5624C70.5437 67.5624 73.3562 64.7374 73.3562 61.2749C73.3562 57.8062 70.5437 54.9874 67.0687 54.9874ZM67.0687 65.5749C64.7 65.5749 62.775 63.6499 62.775 61.2812C62.775 58.9124 64.7 56.9874 67.0687 56.9874C69.4375 56.9874 71.3625 58.9124 71.3625 61.2812C71.3625 63.6499 69.4375 65.5749 67.0687 65.5749ZM61.9875 55.8499H40.825C42.2 57.1499 43.0875 58.9562 43.1687 60.9687L43.4812 61.2812H59.625C59.625 59.1437 60.5375 57.2124 61.9875 55.8499ZM77.1437 38.4124H58.225C57.2312 38.4124 57.2312 36.8749 58.225 36.8749H77.1375V34.3812C77.1375 33.3062 76.2625 32.4312 75.1875 32.4312H50.0375C49.0062 32.4312 48.2187 33.2687 48.2187 34.4687V52.0374H77.1437V38.4124Z" fill="white"/>
<path d="M77.1375 55.65V53.1125H47.1125L47.125 36.3437C46.5187 36.2312 46.1437 35.8062 45.9937 35.2937H33.675C32.6 35.2937 31.2 36.0062 30.5813 36.875L24.0938 45.825C23.4625 46.6937 22.95 48.2875 22.95 49.3625V50.7062H25.3688C28.0437 50.7062 28.0437 54.85 25.3688 54.85H22.9437V55.6437C22.325 55.8875 22 56.5937 22 57.4312C22 58.2687 22.325 58.975 22.9437 59.2187V59.3125C22.9437 60.3875 23.8188 61.2625 24.8938 61.2625H28.3C28.3 57.1562 31.6437 53.8187 35.7437 53.8187H67.0687C71.1687 53.8187 74.5125 57.15 74.5125 61.2625H75.1875C76.2625 61.2625 77.1375 60.3875 77.1375 59.3125V59.2187C77.7563 58.975 78 58.2687 78 57.4312C78 56.6 77.7563 55.8937 77.1375 55.65ZM35.4813 48.8H33.9125C33.6313 48.8 33.4062 48.5687 33.4062 48.2937C33.4062 48.0125 33.6375 47.7875 33.9125 47.7875H35.4813C35.7625 47.7875 35.9875 48.0187 35.9875 48.2937C35.9812 48.5687 35.7625 48.8 35.4813 48.8ZM42.5063 51.7625H39.475C39.0125 51.7625 38.6 51.4812 38.4562 51.0437C38.0375 49.7812 37.2 47.8187 37.0063 47.2187C36.7375 46.4187 36.1687 46.2187 35.4937 46.2187H30.65L31 46.025H32.15C32.2937 46.025 32.4937 45.9375 32.575 45.6937C32.7625 45.1125 33.1125 44.0312 33.1938 43.7437C33.2625 43.5062 33.0063 43.3562 32.7188 43.6937C32.5063 43.9375 30.9187 45.5812 30.9187 45.5812L29.4875 46.225H28.6313C27.8938 46.225 27.6562 45.8437 28.05 45.2625C29.2812 43.4375 31.875 39.5875 32.325 38.9187C32.925 38.0375 33.3125 37.8187 34.4438 37.8187H42.0625C42.9688 37.8187 43.575 38.2687 43.575 39.0562V50.6875H43.5812C43.5812 51.5875 43.2812 51.7625 42.5063 51.7625Z" fill="white"/>
</svg>
