<svg width="64" height="64" viewBox="0 0 64 64" fill="none" xmlns="http://www.w3.org/2000/svg">
<g clip-path="url(#clip0_1_825)">
<rect width="64" height="64" fill="#2070DD"/>
<path d="M26.1406 32.0656C26.1406 33.4766 27.2844 34.6203 28.6953 34.6203C30.1062 34.6203 31.25 33.4766 31.25 32.0656C31.25 30.6547 30.1062 29.5109 28.6953 29.5109C27.2844 29.5109 26.1406 30.6547 26.1406 32.0656ZM29.7453 32.0656C29.7453 32.6469 29.2719 33.1203 28.6906 33.1203C28.1094 33.1203 27.6406 32.6469 27.6406 32.0656C27.6406 31.4844 28.1141 31.0109 28.6953 31.0109C29.2766 31.0109 29.7453 31.4844 29.7453 32.0656ZM32.1828 26.1641C32.1828 27.575 33.3266 28.7187 34.7375 28.7187C36.1484 28.7187 37.2922 27.575 37.2922 26.1641C37.2922 24.7531 36.1484 23.6094 34.7375 23.6094C33.3266 23.6094 32.1828 24.7531 32.1828 26.1641ZM35.7922 26.1641C35.7922 26.7453 35.3187 27.2187 34.7375 27.2187C34.1562 27.2187 33.6828 26.7453 33.6828 26.1641C33.6828 25.5828 34.1562 25.1094 34.7375 25.1094C35.3187 25.1094 35.7922 25.5828 35.7922 26.1641Z" fill="white"/>
<path d="M24.2188 49.2734V18.3125H38.9375V37.0156H41.375V17.8438H43.7891C44.2156 17.8438 44.5625 17.4969 44.5625 17.0703V12.1016C44.5625 11.675 44.2156 11.3281 43.7891 11.3281H18.8047C18.3781 11.3281 18.0312 11.675 18.0312 12.1016V17.0703C18.0312 17.4969 18.3781 17.8438 18.8047 17.8438H21.7812V49.2734C21.7812 51.2797 23.4078 52.9062 25.4141 52.9062H31.2969V50.4688H25.4141C24.7578 50.4688 24.2188 49.9297 24.2188 49.2734ZM20.3797 15.4953V13.6719H42.2188V15.4953H20.3797Z" fill="white"/>
<path d="M45.6406 39.3125C45.1999 38.8719 44.4874 38.8719 44.0515 39.3125L39.3359 44.0281L37.3906 42.0781C37.1749 41.8625 36.889 41.7453 36.5843 41.75C36.2796 41.7547 35.9937 41.8766 35.7828 42.0969L31.7515 46.3157C31.3203 46.7657 31.339 47.4781 31.789 47.9047C32.0046 48.111 32.2859 48.2141 32.5671 48.2141C32.8624 48.2141 33.1578 48.0969 33.3828 47.8672L36.6171 44.4828L38.5437 46.4094C38.9843 46.85 39.6968 46.85 40.1328 46.4094L45.6406 40.9063C46.0765 40.4656 46.0765 39.7531 45.6406 39.3125Z" fill="white"/>
</g>
<defs>
<clipPath id="clip0_1_825">
<rect width="64" height="64" rx="10" fill="white"/>
</clipPath>
</defs>
</svg>
