<svg width="64" height="64" viewBox="0 0 64 64" fill="none" xmlns="http://www.w3.org/2000/svg">
<g clip-path="url(#clip0_1_813)">
<rect width="64" height="64" fill="#FF7A00"/>
<path d="M32.0001 10.6842C22.4351 10.6842 14.6812 18.4381 14.6812 28.0032C14.6812 30.234 15.103 32.3661 15.8711 34.3244C15.8711 34.3244 15.8712 34.3246 15.8712 34.3246C16.1304 34.9854 16.429 35.6265 16.7641 36.2448C18.6425 39.9766 23.5413 48.2823 32.0001 53.3156C40.4573 48.2834 45.3559 39.9799 47.2351 36.247C48.5643 33.7957 49.3192 30.9876 49.3192 28.0032C49.3192 18.4382 41.5652 10.6842 32.0001 10.6842ZM32.0002 42.9084C23.8743 42.9084 17.2869 36.321 17.2869 28.1951C17.2869 20.0691 23.8743 13.4818 32.0002 13.4818C40.1261 13.4818 46.7135 20.0691 46.7135 28.195C46.7135 36.3209 40.1261 42.9084 32.0002 42.9084Z" fill="white"/>
<path d="M42.0543 21.5985L32.636 21.5959C32.1968 21.5959 31.8408 21.92 31.8408 22.3197C31.8408 22.7194 32.1968 23.0435 32.636 23.0435L42.0543 23.046C42.4934 23.046 42.8495 22.722 42.8495 22.3223C42.8495 21.9225 42.4935 21.5985 42.0543 21.5985Z" fill="white"/>
<path d="M39.7379 25.6429L32.636 25.6404C32.1968 25.6404 31.8408 25.9644 31.8408 26.3642C31.8408 26.7639 32.1968 27.0879 32.636 27.0879L39.7379 27.0904C40.1771 27.0904 40.5331 26.7665 40.5331 26.3667C40.5331 25.967 40.1771 25.6429 39.7379 25.6429Z" fill="white"/>
<path d="M37.5418 29.6878L32.636 29.6853C32.1968 29.6853 31.8408 30.0094 31.8408 30.4091C31.8408 30.8089 32.1968 31.1329 32.636 31.1329L37.5418 31.1354C37.981 31.1354 38.337 30.8114 38.337 30.4117C38.337 30.012 37.981 29.6878 37.5418 29.6878Z" fill="white"/>
<path d="M28.5496 18.9137C28.3119 18.7765 28.0079 18.8579 27.8706 19.0957L27.7993 19.2192C27.662 19.4569 27.7435 19.7609 27.9812 19.8982L29.4693 20.7574C29.4817 20.7645 29.468 20.7566 29.6479 20.8605L25.1457 28.6586L23.6995 27.8237C23.4618 27.6865 23.1579 27.7679 23.0206 28.0057L22.8087 28.3724L22.8063 28.371C22.8063 28.371 22.1414 29.5226 21.9806 29.8011C21.8198 30.0795 21.2081 31.5776 21.2005 32.2336C21.1929 32.8897 20.8667 34.8781 21.9822 35.5221C23.0977 36.1662 24.6566 34.8895 25.221 34.5549C25.7854 34.2203 26.7769 32.9414 26.9376 32.663C27.0485 32.4709 27.3993 31.8633 27.6063 31.5048L27.7632 31.2329L27.975 30.8661C28.1123 30.6284 28.0308 30.3244 27.7931 30.1872L26.3492 29.3535L30.8515 21.5552C31.0261 21.656 30.962 21.6191 31.0253 21.6557L31.4927 21.9255C31.6427 21.5245 31.9999 21.2246 32.434 21.1563L28.5496 18.9137Z" fill="white"/>
</g>
<defs>
<clipPath id="clip0_1_813">
<rect width="64" height="64" rx="10" fill="white"/>
</clipPath>
</defs>
</svg>
